# xmcd
#
# Track frame offsets: 
#        150
#        13470
#        38030
#        68297
#
# Disc length: 1220 seconds
#
# Revision: 10
# Processed by: cddbd v1.5.1PL0 Copyright (c) Steve Scherf et al.
# Submitted via: ExactAudioCopy v0.95b3
#
DISCID=2904c204
DTITLE=Helloween - Mrs. God (Single) (Japanese)
DYEAR=2005
DGENRE=Metal
TTITLE0=Mrs. God
TTITLE1=My Life For One More Day (Edit)
TTITLE2=Run (The Name Of Your Enemy)
TTITLE3=Mrs. God (Video)
EXTD=YEAR: 2005
EXTT0=
EXTT1=
EXTT2=
EXTT3=
PLAYORDER=
